# xmcd CD database file
#
# Track frame offsets:
#	150
#	25585
#	70668
#	90547
#	122455
#	159204
#	190261
#	229199
#	243651
#
# Disc length: 3622 seconds
#
# Revision: 0
# Processed by: cddbd v1.5.1PL0 Copyright (c) Steve Scherf et al.
# Submitted via: CDex 1.51
#
DISCID=640e2409
DTITLE=Argentos - Manifestando
DYEAR=2005
DGENRE=Jazz
TTITLE0=Quemando Banderas
TTITLE1=Expreso Barcelona-La Coruña
TTITLE2=En vos mi voz
TTITLE3=Chúcaro
TTITLE4=Te y cotorreo
TTITLE5=Gauchos malevos (Bartolo el gaucho Hereje)
TTITLE6=Once pibes
TTITLE7=La última
TTITLE8=Gauchos malevos (Pedro el estoico)
EXTD=YEAR: 2005
EXTT0=
EXTT1=
EXTT2=
EXTT3=
EXTT4=
EXTT5=
EXTT6=
EXTT7=
EXTT8=
PLAYORDER=
